<?xml version="1.0" ?><svg id="Multicolor" viewBox="0 0 100 112" xmlns="http://www.w3.org/2000/svg" xmlns:xlink="http://www.w3.org/1999/xlink"><defs><style>.cls-1,.cls-10{fill:none;}.cls-2{fill:#fff0ed;}.cls-3{clip-path:url(#clip-path);}.cls-4{fill:#ff6242;}.cls-5{fill:#ff8a14;}.cls-6{fill:#ffe500;}.cls-7{fill:#6dd627;}.cls-8{fill:#00b8f0;}.cls-9{fill:#9f5ae5;}.cls-10{stroke:#45413c;stroke-linecap:round;stroke-linejoin:round;}</style><clipPath id="clip-path"><circle class="cls-1" cx="50.018" cy="55.971" r="40"/></clipPath></defs><title/><g id="Scene"><g data-name="New Symbol 1" id="New_Symbol_1-16"><circle class="cls-2" cx="50.019" cy="55.971" r="40"/></g><g class="cls-3"><path class="cls-4" d="M50.881,41.471h3.771a4.134,4.134,0,0,0-3.771,0Z"/><path class="cls-5" d="M48.643,45.138V47.2a4.123,4.123,0,1,0-8.245,0v2.061a4.123,4.123,0,1,0-8.245,0v3.21H57.18l-.473-.134.181-7.2a4.123,4.123,0,0,0-2.236-3.667H50.881A4.123,4.123,0,0,0,48.643,45.138Z"/><path class="cls-6" d="M32.153,55a27.921,27.921,0,0,0,1.157,8.472H65.666l.4-8.472L57.18,52.471H32.153Z"/><path class="cls-7" d="M36.276,73.551v.92H65.144l.522-11H33.31C34.529,67.432,36.276,69.6,36.276,73.551Z"/><path class="cls-8" d="M36.276,85.471H59.981V81.8a6.28,6.28,0,0,1,2.45-4.977l2.7-2.141.01-.207H36.276Z"/><rect class="cls-9" height="11" width="23.705" x="36.276" y="85.471"/><path class="cls-10" d="M56.889,45.138a4.123,4.123,0,0,0-8.246,0V47.2a4.123,4.123,0,1,0-8.245,0v2.061a4.123,4.123,0,1,0-8.245,0V55c0,10.62,4.123,12.481,4.123,18.552V98.044l23.7-.171V81.8a6.281,6.281,0,0,1,2.451-4.977l2.7-2.141L66.068,55l-9.361-2.662Z"/><line class="cls-10" x1="48.643" x2="48.643" y1="47.2" y2="49.261"/><path class="cls-4" d="M35.163,39.567a4.115,4.115,0,0,0-3.121,1.9h6.971A4.123,4.123,0,0,0,35.163,39.567Z"/><path class="cls-5" d="M31.421,44.038l.748,8.433H40.4a4.063,4.063,0,0,0-.01-.593l-.761-8.569a4.1,4.1,0,0,0-.62-1.838H32.042A4.107,4.107,0,0,0,31.421,44.038Z"/><path class="cls-6" d="M32.181,52.607a4.123,4.123,0,0,0,8.223-.136H32.169Z"/><path class="cls-10" d="M36.652,56.349a4.123,4.123,0,0,1-4.471-3.742l-.76-8.569a4.123,4.123,0,0,1,8.213-.729l.76,8.569A4.123,4.123,0,0,1,36.652,56.349Z"/><path class="cls-4" d="M43.688,35.4a4.306,4.306,0,0,0-4.031,4.564l.094,1.511h8.628l-.127-2.044A4.306,4.306,0,0,0,43.688,35.4Z"/><path class="cls-5" d="M40.423,52.315c0,.053.008.105.013.156h8.57a4.374,4.374,0,0,0,.012-.688l-.639-10.312H39.751Z"/><path class="cls-6" d="M44.987,56.346a4.307,4.307,0,0,0,4.019-3.875h-8.57A4.305,4.305,0,0,0,44.987,56.346Z"/><path class="cls-10" d="M44.987,56.347a4.306,4.306,0,0,1-4.564-4.032L39.657,39.96a4.306,4.306,0,0,1,8.6-.533l.766,12.356A4.307,4.307,0,0,1,44.987,56.347Z"/><path class="cls-4" d="M52.766,34.4a4.287,4.287,0,0,0-4.287,4.286v2.784h8.573V38.687A4.286,4.286,0,0,0,52.766,34.4Z"/><path class="cls-5" d="M48.479,49.94a4.265,4.265,0,0,0,.828,2.531h6.918a4.264,4.264,0,0,0,.827-2.531V41.471H48.479Z"/><path class="cls-6" d="M52.766,54.226a4.281,4.281,0,0,0,3.459-1.755H49.307A4.281,4.281,0,0,0,52.766,54.226Z"/><path class="cls-10" d="M52.766,54.226a4.287,4.287,0,0,1-4.287-4.286V38.688a4.287,4.287,0,1,1,8.574,0V49.94A4.287,4.287,0,0,1,52.766,54.226Z"/><path class="cls-4" d="M61.433,34.168a4.2,4.2,0,0,0-4.342,4.048l-.115,3.255h8.4l.1-2.96A4.2,4.2,0,0,0,61.433,34.168Z"/><path class="cls-5" d="M56.7,49.23a4.189,4.189,0,0,0,1.358,3.241h5.675A4.186,4.186,0,0,0,65.1,49.525l.283-8.054h-8.4Z"/><path class="cls-6" d="M60.753,53.573a4.182,4.182,0,0,0,2.984-1.1H58.062A4.181,4.181,0,0,0,60.753,53.573Z"/><path class="cls-10" d="M60.753,53.573A4.2,4.2,0,0,1,56.7,49.23l.386-11.014a4.2,4.2,0,0,1,8.392.3L65.1,49.525A4.2,4.2,0,0,1,60.753,53.573Z"/><path class="cls-5" d="M67.438,48.643h-8.66a4.123,4.123,0,0,0-4.112,3.828H73.16A6.191,6.191,0,0,0,67.438,48.643Z"/><path class="cls-6" d="M58.778,56.864h6.91a14.291,14.291,0,0,0-11.87,6.607H73.509a12.049,12.049,0,0,0,.118-1.671V54.832a6.182,6.182,0,0,0-.467-2.361H54.666c-.007.1-.011.2-.011.3A4.1,4.1,0,0,0,58.778,56.864Z"/><path class="cls-7" d="M51.736,70.459v3.092l.92.92H65.483l2.666-2.051a13.9,13.9,0,0,0,5.36-8.949H53.818A12.96,12.96,0,0,0,51.736,70.459Z"/><path class="cls-8" d="M59.981,81.8a6.279,6.279,0,0,1,2.45-4.977l3.052-2.348H52.656Z"/><path class="cls-10" d="M59.98,81.8a6.281,6.281,0,0,1,2.451-4.977l5.718-4.4A13.641,13.641,0,0,0,73.626,61.8V54.832a6.188,6.188,0,0,0-6.188-6.189h-8.66a4.111,4.111,0,1,0,0,8.221h6.909c-7.4,0-13.952,6.2-13.952,13.6v3.092"/><line class="cls-10" x1="65.679" x2="67.834" y1="56.865" y2="56.865"/></g></g></svg>